# xmcd
# Track frame offsets:
# 150
# 15340
# 27841
# 39229
# 55973
# 70263
# 92348
# 103995
# 118614
# 133023
# 144468
# 155108
# 166051
# 178151
# 193682
#
# Disc length: 2785 seconds
# Revision: 0
# Processed by: cddbd v1.5.1PL2 Copyright (c) Steve Scherf et al.
# Submitted via: VisiTrax 2.9.10.228 - For more info visit www.synapsa.com
#
DISCID=c70adf0f
DTITLE=Thrupp.Bart. - My Journey Begins.
DYEAR=2003
DGENRE=Country
TTITLE0=Never Was At All.
TTITLE1=Mick The Cattle Buyer.
TTITLE2=Short Of A Quid.
TTITLE3=Hat Town.
TTITLE4=Grandma.
TTITLE5=Paddy William.
TTITLE6=Runaway.
TTITLE7=She's My Ute.
TTITLE8=Rutland Rodeo.
TTITLE9=I'm From The Country.
TTITLE10=King Of The Road.
TTITLE11=Rock And Roll Girls.
TTITLE12=Click Go The Shears.
TTITLE13=Rodeo.
TTITLE14=Fire Of Gidgee Coal.
EXTD=
EXTT0=
EXTT1=
EXTT2=
EXTT3=
EXTT4=
EXTT5=
EXTT6=
EXTT7=
EXTT8=
EXTT9=
EXTT10=
EXTT11=
EXTT12=
EXTT13=
EXTT14=
PLAYORDER=
